<?xml version="1.0" encoding="utf-8"?>
<!-- Generator: Adobe Illustrator 22.1.0, SVG Export Plug-In . SVG Version: 6.00 Build 0)  -->
<svg version="1.1" id="Слой_1" xmlns="http://www.w3.org/2000/svg" xmlns:xlink="http://www.w3.org/1999/xlink" x="0px" y="0px"
	 viewBox="0 0 19 23" style="enable-background:new 0 0 19 23;" xml:space="preserve">
<style type="text/css">
	.st0{fill:#1C1C1C;}
</style>
<path class="st0" d="M2.5,5.4v-1c-0.5,0-0.9,0.4-1,0.9L2.5,5.4z M1.1,18.5l-1-0.1l0,0v0.1H1.1z M9.9,6.4c0.6,0,1-0.4,1-1
	c0-0.6-0.4-1-1-1V6.4z M9.9,22.4c0.6,0,1-0.4,1-1c0-0.6-0.4-1-1-1V22.4z M16.5,5.4l1-0.1c-0.1-0.5-0.5-0.9-1-0.9V5.4z M17.9,18.5h1
	v-0.1l0,0L17.9,18.5z M9.1,4.4c-0.6,0-1,0.4-1,1c0,0.6,0.4,1,1,1V4.4z M9.1,20.4c-0.6,0-1,0.4-1,1c0,0.6,0.4,1,1,1V20.4z M12,8.3
	c0,0.6,0.4,1,1,1c0.6,0,1-0.4,1-1H12z M13,4.5h1V4.5l0-0.1L13,4.5z M6,4.5L5,4.4l0,0v0H6z M5,8.3c0,0.6,0.4,1,1,1c0.6,0,1-0.4,1-1H5
	z M1.5,5.3L0.1,18.4l2,0.2L3.5,5.5L1.5,5.3z M2.5,6.4h7.5v-2H2.5V6.4z M0.1,18.5c0,1,0.3,2,1,2.8c0.7,0.8,1.8,1.2,3.1,1.2v-2
	c-0.9,0-1.4-0.3-1.6-0.5c-0.3-0.3-0.4-0.7-0.4-1.4H0.1z M4.2,22.4h5.7v-2H4.2V22.4z M15.5,5.5l1.3,13.1l2-0.2L17.5,5.3L15.5,5.5z
	 M16.5,4.4H9.1v2h7.5V4.4z M16.9,18.5c0,0.7-0.2,1.1-0.4,1.4c-0.3,0.3-0.7,0.5-1.6,0.5v2c1.3,0,2.4-0.4,3.1-1.2c0.7-0.8,1-1.8,1-2.8
	H16.9z M14.8,20.4H9.1v2h5.7V20.4z M14,8.3V4.5h-2v3.8H14z M14,4.4c-0.3-2.7-2.5-3.9-4.5-3.9c-2,0-4.2,1.3-4.5,4l2,0.2
	c0.1-1.4,1.2-2.2,2.5-2.2c1.3,0,2.4,0.7,2.6,2.2L14,4.4z M5,4.5v3.8h2V4.5H5z"/>
</svg>
