<?xml version="1.0" encoding="utf-8"?>
<!-- Generator: Adobe Illustrator 22.1.0, SVG Export Plug-In . SVG Version: 6.00 Build 0)  -->
<svg version="1.1" id="Слой_1" xmlns="http://www.w3.org/2000/svg" xmlns:xlink="http://www.w3.org/1999/xlink" x="0px" y="0px"
	 viewBox="0 0 27 23" style="enable-background:new 0 0 27 23;" xml:space="preserve">
<style type="text/css">
	.st0{fill:none;stroke:#1C1C1C;stroke-width:2;stroke-linecap:round;stroke-linejoin:round;}
</style>
<path class="st0" d="M11.4,3c0.6,2.4,3.5,1.8,3.5-0.4 M26,14.5c0,6.6-10,6.6-10,0H26z M26,14.5L21,1.9L26,14.5z M26,14.5H16H26z
	 M16,14.5l5-12.6L16,14.5z M21,1.9l-6.1,0.7c-0.6-2.4-3.5-1.8-3.5,0.4L6,3.6L21,1.9z M6,3.6L1,16.2L6,3.6z M6,3.6l5,12.6L6,3.6z
	 M1,16.2c0,6.6,10,6.6,10,0H1z M1,16.2h10H1z"/>
</svg>
