<svg width="24" height="23" viewBox="0 0 24 23" fill="none" xmlns="http://www.w3.org/2000/svg">
<path d="M10.9361 19.864L10.9347 19.8627C7.82516 17.0203 5.32436 14.7288 3.58925 12.5889C1.86537 10.4629 1 8.60733 1 6.65323C1 3.46122 3.46266 1 6.6 1C8.3827 1 10.1125 1.84179 11.2386 3.1644L12 4.0587L12.7614 3.1644C13.8875 1.84179 15.6173 1 17.4 1C20.5373 1 23 3.46122 23 6.65323C23 8.60733 22.1346 10.4629 20.4108 12.5889C18.6756 14.7288 16.1748 17.0203 13.0653 19.8627L13.0639 19.864L12 20.8403L10.9361 19.864Z" stroke="#1C1C1C" stroke-width="2"/>
</svg>
